<mxfile host="app.diagrams.net" agent="Mozilla/5.0 (Windows NT 10.0; Win64; x64) AppleWebKit/537.36 (KHTML, like Gecko) Chrome/135.0.0.0 Safari/537.36" version="26.2.14">
  <diagram name="Page-1" id="c37626ed-c26b-45fb-9056-f9ebc6bb27b6">
    <mxGraphModel dx="1678" dy="884" grid="1" gridSize="10" guides="1" tooltips="1" connect="1" arrows="1" fold="1" page="1" pageScale="1" pageWidth="1100" pageHeight="850" background="none" math="0" shadow="0">
      <root>
        <mxCell id="0" />
        <mxCell id="1" parent="0" />
        <mxCell id="3WH067JlP2fbwAY4hMus-22" value="Internet" style="ellipse;shape=cloud;whiteSpace=wrap;html=1;" vertex="1" parent="1">
          <mxGeometry x="510" y="230" width="120" height="80" as="geometry" />
        </mxCell>
        <mxCell id="3WH067JlP2fbwAY4hMus-23" value="Melbourne CBD &lt;br&gt;Head Quarters" style="rounded=1;whiteSpace=wrap;html=1;" vertex="1" parent="1">
          <mxGeometry x="240" y="500" width="120" height="60" as="geometry" />
        </mxCell>
        <mxCell id="3WH067JlP2fbwAY4hMus-24" value="Essendon Fields Branch" style="rounded=1;whiteSpace=wrap;html=1;" vertex="1" parent="1">
          <mxGeometry x="460" y="500" width="120" height="60" as="geometry" />
        </mxCell>
        <mxCell id="3WH067JlP2fbwAY4hMus-25" value="Dandenong Branch" style="rounded=1;whiteSpace=wrap;html=1;" vertex="1" parent="1">
          <mxGeometry x="670" y="500" width="120" height="60" as="geometry" />
        </mxCell>
        <mxCell id="3WH067JlP2fbwAY4hMus-26" value="Derrimut Branch" style="rounded=1;whiteSpace=wrap;html=1;" vertex="1" parent="1">
          <mxGeometry x="900" y="500" width="120" height="60" as="geometry" />
        </mxCell>
        <mxCell id="3WH067JlP2fbwAY4hMus-27" value="VPN users" style="ellipse;whiteSpace=wrap;html=1;" vertex="1" parent="1">
          <mxGeometry x="30" y="480" width="120" height="80" as="geometry" />
        </mxCell>
        <mxCell id="3WH067JlP2fbwAY4hMus-28" value="WAN links" style="ellipse;shape=cloud;whiteSpace=wrap;html=1;" vertex="1" parent="1">
          <mxGeometry x="240" y="360" width="120" height="80" as="geometry" />
        </mxCell>
        <mxCell id="3WH067JlP2fbwAY4hMus-29" value="WAN links" style="ellipse;shape=cloud;whiteSpace=wrap;html=1;" vertex="1" parent="1">
          <mxGeometry x="460" y="360" width="120" height="80" as="geometry" />
        </mxCell>
        <mxCell id="3WH067JlP2fbwAY4hMus-30" value="WAN links" style="ellipse;shape=cloud;whiteSpace=wrap;html=1;" vertex="1" parent="1">
          <mxGeometry x="660" y="360" width="120" height="80" as="geometry" />
        </mxCell>
        <mxCell id="3WH067JlP2fbwAY4hMus-31" value="WAN links" style="ellipse;shape=cloud;whiteSpace=wrap;html=1;" vertex="1" parent="1">
          <mxGeometry x="890" y="360" width="120" height="80" as="geometry" />
        </mxCell>
        <mxCell id="3WH067JlP2fbwAY4hMus-33" value="" style="endArrow=classic;startArrow=classic;html=1;rounded=0;entryX=0.55;entryY=0.95;entryDx=0;entryDy=0;entryPerimeter=0;exitX=0.5;exitY=0;exitDx=0;exitDy=0;" edge="1" parent="1" source="3WH067JlP2fbwAY4hMus-23" target="3WH067JlP2fbwAY4hMus-28">
          <mxGeometry width="50" height="50" relative="1" as="geometry">
            <mxPoint x="275" y="490" as="sourcePoint" />
            <mxPoint x="325" y="440" as="targetPoint" />
          </mxGeometry>
        </mxCell>
        <mxCell id="3WH067JlP2fbwAY4hMus-34" value="" style="endArrow=classic;startArrow=classic;html=1;rounded=0;entryX=0.55;entryY=0.95;entryDx=0;entryDy=0;entryPerimeter=0;" edge="1" parent="1" source="3WH067JlP2fbwAY4hMus-24" target="3WH067JlP2fbwAY4hMus-29">
          <mxGeometry width="50" height="50" relative="1" as="geometry">
            <mxPoint x="310" y="510" as="sourcePoint" />
            <mxPoint x="316" y="446" as="targetPoint" />
          </mxGeometry>
        </mxCell>
        <mxCell id="3WH067JlP2fbwAY4hMus-35" value="" style="endArrow=classic;startArrow=classic;html=1;rounded=0;entryX=0.477;entryY=0.921;entryDx=0;entryDy=0;entryPerimeter=0;" edge="1" parent="1" source="3WH067JlP2fbwAY4hMus-25" target="3WH067JlP2fbwAY4hMus-30">
          <mxGeometry width="50" height="50" relative="1" as="geometry">
            <mxPoint x="320" y="520" as="sourcePoint" />
            <mxPoint x="326" y="456" as="targetPoint" />
          </mxGeometry>
        </mxCell>
        <mxCell id="3WH067JlP2fbwAY4hMus-36" value="" style="endArrow=classic;startArrow=classic;html=1;rounded=0;entryX=0.55;entryY=0.95;entryDx=0;entryDy=0;entryPerimeter=0;" edge="1" parent="1" source="3WH067JlP2fbwAY4hMus-26" target="3WH067JlP2fbwAY4hMus-31">
          <mxGeometry width="50" height="50" relative="1" as="geometry">
            <mxPoint x="330" y="530" as="sourcePoint" />
            <mxPoint x="336" y="466" as="targetPoint" />
          </mxGeometry>
        </mxCell>
        <mxCell id="3WH067JlP2fbwAY4hMus-37" value="" style="endArrow=classic;startArrow=classic;html=1;rounded=0;entryX=0.16;entryY=0.55;entryDx=0;entryDy=0;entryPerimeter=0;exitX=0.625;exitY=0.2;exitDx=0;exitDy=0;exitPerimeter=0;" edge="1" parent="1" source="3WH067JlP2fbwAY4hMus-28" target="3WH067JlP2fbwAY4hMus-22">
          <mxGeometry width="50" height="50" relative="1" as="geometry">
            <mxPoint x="340" y="540" as="sourcePoint" />
            <mxPoint x="346" y="476" as="targetPoint" />
          </mxGeometry>
        </mxCell>
        <mxCell id="3WH067JlP2fbwAY4hMus-54" value="" style="endArrow=classic;startArrow=classic;html=1;rounded=0;entryX=0.31;entryY=0.8;entryDx=0;entryDy=0;entryPerimeter=0;exitX=0.625;exitY=0.2;exitDx=0;exitDy=0;exitPerimeter=0;" edge="1" parent="1" source="3WH067JlP2fbwAY4hMus-29" target="3WH067JlP2fbwAY4hMus-22">
          <mxGeometry width="50" height="50" relative="1" as="geometry">
            <mxPoint x="325" y="386" as="sourcePoint" />
            <mxPoint x="539" y="284" as="targetPoint" />
          </mxGeometry>
        </mxCell>
        <mxCell id="3WH067JlP2fbwAY4hMus-55" value="" style="endArrow=classic;startArrow=classic;html=1;rounded=0;entryX=0.8;entryY=0.8;entryDx=0;entryDy=0;entryPerimeter=0;exitX=0.477;exitY=0.126;exitDx=0;exitDy=0;exitPerimeter=0;" edge="1" parent="1" source="3WH067JlP2fbwAY4hMus-30" target="3WH067JlP2fbwAY4hMus-22">
          <mxGeometry width="50" height="50" relative="1" as="geometry">
            <mxPoint x="335" y="396" as="sourcePoint" />
            <mxPoint x="549" y="294" as="targetPoint" />
          </mxGeometry>
        </mxCell>
        <mxCell id="3WH067JlP2fbwAY4hMus-56" value="" style="endArrow=classic;startArrow=classic;html=1;rounded=0;entryX=0.875;entryY=0.5;entryDx=0;entryDy=0;entryPerimeter=0;exitX=0.4;exitY=0.1;exitDx=0;exitDy=0;exitPerimeter=0;" edge="1" parent="1" source="3WH067JlP2fbwAY4hMus-31" target="3WH067JlP2fbwAY4hMus-22">
          <mxGeometry width="50" height="50" relative="1" as="geometry">
            <mxPoint x="345" y="406" as="sourcePoint" />
            <mxPoint x="559" y="304" as="targetPoint" />
          </mxGeometry>
        </mxCell>
        <mxCell id="3WH067JlP2fbwAY4hMus-57" value="&lt;font style=&quot;font-size: 31px;&quot;&gt;High-Level-Design of Connectivity between branches&lt;/font&gt;" style="text;html=1;align=center;verticalAlign=middle;whiteSpace=wrap;rounded=0;" vertex="1" parent="1">
          <mxGeometry x="150" y="50" width="840" height="30" as="geometry" />
        </mxCell>
        <mxCell id="3WH067JlP2fbwAY4hMus-59" value="" style="endArrow=classic;startArrow=classic;html=1;rounded=0;entryX=0.169;entryY=0.281;entryDx=0;entryDy=0;entryPerimeter=0;exitX=0.5;exitY=0;exitDx=0;exitDy=0;" edge="1" parent="1" source="3WH067JlP2fbwAY4hMus-27" target="3WH067JlP2fbwAY4hMus-22">
          <mxGeometry width="50" height="50" relative="1" as="geometry">
            <mxPoint x="90" y="440" as="sourcePoint" />
            <mxPoint x="140" y="390" as="targetPoint" />
            <Array as="points">
              <mxPoint x="240" y="310" />
            </Array>
          </mxGeometry>
        </mxCell>
      </root>
    </mxGraphModel>
  </diagram>
</mxfile>
